. 
  
http://www.torrenting.com/        :     Greatest Movie Tracker on The Net!!!
 
http://www.Torrenting.com          :     Once & For all ;)


               www . Torrenting . Com 

(((((((((((((= Enjoy No RAR releases =))))))))))))))))))))


...................................NFO:....................................

.[img]http://img200.imageshack.us/img200/5821/dd6521307871368744.jpg[/img]

[color=blue][size=4][b]Change.of.Plans.2011.BDRip.XVID.AC3.HQ.Hive-CM8[/b][/size][/color]


[b]Thx Hive

CM8 Doing It Right The First Time :D


Source Bluray

Video: 720x400 @bitrate 1800 2pass
Audio: English DTS to AC3 5.1 @448
Sample: yes included
Subs: yes english in srt /subs[/b]


[url]http://www.imdb.com/title/tt1790658/[/url]


General
Complete name                    : Change.of.Plans.2011.BDRip.XVID.AC3.HQ.Hive-CM8.avi
Format                           : AVI
Format/Info                      : Audio Video Interleave
File size                        : 1.39 GiB
Duration                         : 1h 27mn
Overall bit rate                 : 2 257 Kbps
Writing application              : Nandub v1.0rc2
Writing library                  : Nandub build 1853/release

Video
ID                               : 0
Format                           : MPEG-4 Visual
Format profile                   : Advanced Simple@L5
Format settings, BVOP            : 2
Format settings, QPel            : Yes
Format settings, GMC             : No warppoints
Format settings, Matrix          : Default (H.263)
Muxing mode                      : Packed bitstream
Codec ID                         : XVID
Codec ID/Hint                    : XviD
Duration                         : 1h 27mn
Bit rate                         : 1 800 Kbps
Width                            : 720 pixels
Height                           : 400 pixels
Display aspect ratio             : 16:9
Frame rate                       : 23.976 fps
Color space                      : YUV
Chroma subsampling               : 4:2:0
Bit depth                        : 8 bits
Scan type                        : Progressive
Compression mode                 : Lossy
Bits/(Pixel*Frame)               : 0.261
Stream size                      : 1.11 GiB (80%)
Writing library                  : XviD 1.2.1 (UTC 2008-12-04)

Audio
ID                               : 1
Format                           : AC-3
Format/Info                      : Audio Coding 3
Mode extension                   : CM (complete main)
Codec ID                         : 2000
Duration                         : 1h 27mn
Bit rate mode                    : Constant
Bit rate                         : 448 Kbps
Channel(s)                       : 6 channels
Channel positions                : Front: L C R, Side: L R, LFE
Sampling rate                    : 48.0 KHz
Bit depth                        : 16 bits
Compression mode                 : Lossy
Stream size                      : 282 MiB (20%)
Alignment                        : Split accross interleaves
Interleave, duration             : 42 ms (1.00 video frame)
Interleave, preload duration     : 500 ms


Brooke White	 ... 	Sally Danville
Joe Flanigan	... 	Jason Danville
Phylicia Rashad	... 	Dorothy
Jayme Lynn Evans	... 	Jordan Solarte
Bobby Soto	... 	Javier Solarte


Sally and Jason Danville's life are turned upside down when a tragic accident 
suddenly names them the caretakers of four young children. 


[img]http://img696.imageshack.us/img696/513/67160514.png[/img]
[img]http://img696.imageshack.us/img696/2768/chchq.png[/img]
[img]http://img850.imageshack.us/img850/3533/chchcchhchchchchch.png[/img]
[img]http://img28.imageshack.us/img28/4129/chchch.png[/img]
[img]http://img854.imageshack.us/img854/6674/chchchch.png[/img]
[img]http://img838.imageshack.us/img838/6138/chchchchch.png[/img]
[img]http://img94.imageshack.us/img94/4119/chchchchchch.png[/img]
[img]http://img821.imageshack.us/img821/1510/chchchchchchch.png[/img]
[img]http://img217.imageshack.us/img217/749/chchchchchchchch.png[/img]






Greetz

ViSiON,SANTi,MAGNET,THC,T0XiC,iNK,LKRG,IMAGiNE,WBZ,FLAWL3SS,NOVA
Vik,OneTwo,Rapeseed,D2U,SAFC,goldadvance,MEMORY100,KaN1vE,Unevano,Pinnz,Wayne,Mr Hive
and all P2P groups 
Great Work Guys :D

FYS

CM8@hushmail.com